<?xml version="1.0" encoding="UTF-8" standalone="no"?>
<!DOCTYPE svg PUBLIC "-//W3C//DTD SVG 1.1//EN"
 "http://www.w3.org/Graphics/SVG/1.1/DTD/svg11.dtd">
<!-- Generated by graphviz version 2.43.0 (0)
 -->
<!-- Title: %3 Pages: 1 -->
<svg width="1222pt" height="1412pt"
 viewBox="0.00 0.00 1222.13 1412.00" xmlns="http://www.w3.org/2000/svg" xmlns:xlink="http://www.w3.org/1999/xlink">
<g id="graph0" class="graph" transform="scale(1 1) rotate(0) translate(4 1408)">
<title>%3</title>
<polygon fill="white" stroke="transparent" points="-4,4 -4,-1408 1218.13,-1408 1218.13,4 -4,4"/>
<!-- distance -->
<g id="node1" class="node">
<title>distance</title>
<polygon fill="none" stroke="black" points="258.58,-1098 229.79,-1116 172.21,-1116 143.42,-1098 172.21,-1080 229.79,-1080 258.58,-1098"/>
<text text-anchor="middle" x="201" y="-1094.3" font-family="Times,serif" font-size="14.00">distance</text>
</g>
<!-- header -->
<g id="node3" class="node">
<title>header</title>
<polygon fill="none" stroke="black" points="172.51,-1044 68.3,-1044 41.49,-1008 145.7,-1008 172.51,-1044"/>
<text text-anchor="middle" x="107" y="-1022.3" font-family="Times,serif" font-size="14.00">Header</text>
</g>
<!-- distance&#45;&gt;header -->
<g id="edge3" class="edge">
<title>distance&#45;&gt;header</title>
<path fill="none" stroke="black" d="M177.76,-1079.7C165.81,-1070.8 151.08,-1059.82 138.15,-1050.2"/>
<polygon fill="black" stroke="black" points="140.08,-1047.27 129.97,-1044.1 135.9,-1052.88 140.08,-1047.27"/>
</g>
<!-- ComputeAdaptiveQuantField -->
<g id="node7" class="node">
<title>ComputeAdaptiveQuantField</title>
<polygon fill="none" stroke="black" points="453,-1044 229,-1044 229,-1008 453,-1008 453,-1044"/>
<text text-anchor="middle" x="341" y="-1022.3" font-family="Times,serif" font-size="14.00">ComputeAdaptiveQuantField</text>
</g>
<!-- distance&#45;&gt;ComputeAdaptiveQuantField -->
<g id="edge7" class="edge">
<title>distance&#45;&gt;ComputeAdaptiveQuantField</title>
<path fill="none" stroke="black" d="M232.42,-1081.29C251.66,-1071.67 276.56,-1059.22 297.66,-1048.67"/>
<polygon fill="black" stroke="black" points="299.37,-1051.73 306.75,-1044.13 296.24,-1045.47 299.37,-1051.73"/>
</g>
<!-- ComputeAcStrategyImage -->
<g id="node16" class="node">
<title>ComputeAcStrategyImage</title>
<polygon fill="none" stroke="black" points="469.5,-900 264.5,-900 264.5,-864 469.5,-864 469.5,-900"/>
<text text-anchor="middle" x="367" y="-878.3" font-family="Times,serif" font-size="14.00">ComputeAcStrategyImage</text>
</g>
<!-- distance&#45;&gt;ComputeAcStrategyImage -->
<g id="edge17" class="edge">
<title>distance&#45;&gt;ComputeAcStrategyImage</title>
<path fill="none" stroke="black" d="M197.67,-1079.78C192.51,-1047.72 186.4,-978.32 220,-936 231.17,-921.93 246.41,-911.59 262.85,-904"/>
<polygon fill="black" stroke="black" points="264.27,-907.2 272.09,-900.05 261.52,-900.76 264.27,-907.2"/>
</g>
<!-- linear -->
<g id="node2" class="node">
<title>linear</title>
<polygon fill="none" stroke="black" points="270.56,-1386 248.78,-1404 205.22,-1404 183.44,-1386 205.22,-1368 248.78,-1368 270.56,-1386"/>
<text text-anchor="middle" x="227" y="-1382.3" font-family="Times,serif" font-size="14.00">linear</text>
</g>
<!-- size -->
<g id="node4" class="node">
<title>size</title>
<ellipse fill="none" stroke="black" cx="187" cy="-1242" rx="28.7" ry="18"/>
<text text-anchor="middle" x="187" y="-1238.3" font-family="Times,serif" font-size="14.00">size</text>
</g>
<!-- linear&#45;&gt;size -->
<g id="edge1" class="edge">
<title>linear&#45;&gt;size</title>
<path fill="none" stroke="black" d="M222.18,-1367.87C215.33,-1343.56 202.72,-1298.82 194.61,-1270.01"/>
<polygon fill="black" stroke="black" points="197.92,-1268.87 191.84,-1260.19 191.18,-1270.76 197.92,-1268.87"/>
</g>
<!-- ToXYB -->
<g id="node5" class="node">
<title>ToXYB</title>
<polygon fill="none" stroke="black" points="294,-1332 232,-1332 232,-1296 294,-1296 294,-1332"/>
<text text-anchor="middle" x="263" y="-1310.3" font-family="Times,serif" font-size="14.00">ToXYB</text>
</g>
<!-- linear&#45;&gt;ToXYB -->
<g id="edge4" class="edge">
<title>linear&#45;&gt;ToXYB</title>
<path fill="none" stroke="black" d="M235.9,-1367.7C240,-1359.73 244.95,-1350.1 249.49,-1341.26"/>
<polygon fill="black" stroke="black" points="252.74,-1342.6 254.2,-1332.1 246.52,-1339.4 252.74,-1342.6"/>
</g>
<!-- jxl -->
<g id="node43" class="node">
<title>jxl</title>
<polygon fill="none" stroke="black" points="612.58,-36 436.67,-36 391.42,0 567.33,0 612.58,-36"/>
<text text-anchor="middle" x="502" y="-14.3" font-family="Times,serif" font-size="14.00">JXL Bitstream</text>
</g>
<!-- header&#45;&gt;jxl -->
<g id="edge64" class="edge">
<title>header&#45;&gt;jxl</title>
<path fill="none" stroke="black" d="M82.18,-1007.98C50.57,-984.07 0,-937.33 0,-883 0,-883 0,-883 0,-161 0,-76.25 268.24,-39.53 412.56,-25.9"/>
<polygon fill="black" stroke="black" points="413.1,-29.37 422.73,-24.96 412.45,-22.4 413.1,-29.37"/>
</g>
<!-- size&#45;&gt;header -->
<g id="edge2" class="edge">
<title>size&#45;&gt;header</title>
<path fill="none" stroke="black" d="M179.4,-1224.64C168.56,-1200.98 148.38,-1155.67 134,-1116 126.55,-1095.44 119.42,-1071.73 114.37,-1053.95"/>
<polygon fill="black" stroke="black" points="117.71,-1052.92 111.64,-1044.24 110.97,-1054.81 117.71,-1052.92"/>
</g>
<!-- opsin -->
<g id="node6" class="node">
<title>opsin</title>
<ellipse fill="none" stroke="black" cx="341" cy="-1242" rx="36" ry="18"/>
<text text-anchor="middle" x="341" y="-1238.3" font-family="Times,serif" font-size="14.00">opsin</text>
</g>
<!-- ToXYB&#45;&gt;opsin -->
<g id="edge5" class="edge">
<title>ToXYB&#45;&gt;opsin</title>
<path fill="none" stroke="black" d="M282.28,-1295.7C292.66,-1286.38 305.58,-1274.79 316.65,-1264.86"/>
<polygon fill="black" stroke="black" points="319.21,-1267.25 324.32,-1257.97 314.54,-1262.04 319.21,-1267.25"/>
</g>
<!-- opsin&#45;&gt;ComputeAdaptiveQuantField -->
<g id="edge6" class="edge">
<title>opsin&#45;&gt;ComputeAdaptiveQuantField</title>
<path fill="none" stroke="black" d="M341,-1223.85C341,-1186.83 341,-1099.18 341,-1054.39"/>
<polygon fill="black" stroke="black" points="344.5,-1054.23 341,-1044.23 337.5,-1054.23 344.5,-1054.23"/>
</g>
<!-- GaborishInverse -->
<g id="node12" class="node">
<title>GaborishInverse</title>
<polygon fill="none" stroke="black" points="534,-1188 400,-1188 400,-1152 534,-1152 534,-1188"/>
<text text-anchor="middle" x="467" y="-1166.3" font-family="Times,serif" font-size="14.00">GaborishInverse</text>
</g>
<!-- opsin&#45;&gt;GaborishInverse -->
<g id="edge11" class="edge">
<title>opsin&#45;&gt;GaborishInverse</title>
<path fill="none" stroke="black" d="M364.11,-1228.16C381.69,-1218.4 406.3,-1204.72 427.04,-1193.2"/>
<polygon fill="black" stroke="black" points="428.92,-1196.16 435.97,-1188.24 425.52,-1190.04 428.92,-1196.16"/>
</g>
<!-- quant_field -->
<g id="node8" class="node">
<title>quant_field</title>
<ellipse fill="none" stroke="black" cx="409" cy="-954" rx="61.99" ry="18"/>
<text text-anchor="middle" x="409" y="-950.3" font-family="Times,serif" font-size="14.00">quant_field</text>
</g>
<!-- ComputeAdaptiveQuantField&#45;&gt;quant_field -->
<g id="edge8" class="edge">
<title>ComputeAdaptiveQuantField&#45;&gt;quant_field</title>
<path fill="none" stroke="black" d="M357.81,-1007.7C366.25,-999.01 376.61,-988.34 385.8,-978.89"/>
<polygon fill="black" stroke="black" points="388.4,-981.23 392.85,-971.62 383.37,-976.36 388.4,-981.23"/>
</g>
<!-- masking -->
<g id="node9" class="node">
<title>masking</title>
<ellipse fill="none" stroke="black" cx="279" cy="-954" rx="50.09" ry="18"/>
<text text-anchor="middle" x="279" y="-950.3" font-family="Times,serif" font-size="14.00">masking</text>
</g>
<!-- ComputeAdaptiveQuantField&#45;&gt;masking -->
<g id="edge9" class="edge">
<title>ComputeAdaptiveQuantField&#45;&gt;masking</title>
<path fill="none" stroke="black" d="M325.67,-1007.7C318.05,-999.09 308.72,-988.55 300.41,-979.17"/>
<polygon fill="black" stroke="black" points="302.97,-976.79 293.72,-971.62 297.73,-981.43 302.97,-976.79"/>
</g>
<!-- raw_quant_field -->
<g id="node10" class="node">
<title>raw_quant_field</title>
<ellipse fill="none" stroke="black" cx="163" cy="-882" rx="83.69" ry="18"/>
<text text-anchor="middle" x="163" y="-878.3" font-family="Times,serif" font-size="14.00">raw_quant_field</text>
</g>
<!-- ComputeAdaptiveQuantField&#45;&gt;raw_quant_field -->
<g id="edge10" class="edge">
<title>ComputeAdaptiveQuantField&#45;&gt;raw_quant_field</title>
<path fill="none" stroke="black" d="M284.09,-1008C262.4,-999.59 238.48,-987.79 220,-972 199.95,-954.87 184.45,-928.92 174.71,-909.46"/>
<polygon fill="black" stroke="black" points="177.75,-907.72 170.27,-900.22 171.44,-910.75 177.75,-907.72"/>
</g>
<!-- quant_field&#45;&gt;ComputeAcStrategyImage -->
<g id="edge19" class="edge">
<title>quant_field&#45;&gt;ComputeAcStrategyImage</title>
<path fill="none" stroke="black" d="M398.83,-936.05C393.95,-927.92 388,-918 382.57,-908.94"/>
<polygon fill="black" stroke="black" points="385.51,-907.05 377.37,-900.28 379.51,-910.65 385.51,-907.05"/>
</g>
<!-- masking&#45;&gt;ComputeAcStrategyImage -->
<g id="edge20" class="edge">
<title>masking&#45;&gt;ComputeAcStrategyImage</title>
<path fill="none" stroke="black" d="M298.97,-937.12C310.37,-928.05 324.87,-916.51 337.55,-906.42"/>
<polygon fill="black" stroke="black" points="339.93,-909.01 345.57,-900.04 335.57,-903.53 339.93,-909.01"/>
</g>
<!-- AdjustRawQuantField -->
<g id="node18" class="node">
<title>AdjustRawQuantField</title>
<polygon fill="none" stroke="black" points="366.5,-756 193.5,-756 193.5,-720 366.5,-720 366.5,-756"/>
<text text-anchor="middle" x="280" y="-734.3" font-family="Times,serif" font-size="14.00">AdjustRawQuantField</text>
</g>
<!-- raw_quant_field&#45;&gt;AdjustRawQuantField -->
<g id="edge22" class="edge">
<title>raw_quant_field&#45;&gt;AdjustRawQuantField</title>
<path fill="none" stroke="black" d="M176.88,-864.15C197.27,-839.41 235.45,-793.08 259.19,-764.25"/>
<polygon fill="black" stroke="black" points="262.11,-766.21 265.77,-756.27 256.71,-761.76 262.11,-766.21"/>
</g>
<!-- opsin2 -->
<g id="node11" class="node">
<title>opsin2</title>
<ellipse fill="none" stroke="black" cx="518" cy="-1098" rx="36" ry="18"/>
<text text-anchor="middle" x="518" y="-1094.3" font-family="Times,serif" font-size="14.00">opsin</text>
</g>
<!-- ComputeColorCorrelationMap -->
<g id="node13" class="node">
<title>ComputeColorCorrelationMap</title>
<polygon fill="none" stroke="black" points="797,-1044 565,-1044 565,-1008 797,-1008 797,-1044"/>
<text text-anchor="middle" x="681" y="-1022.3" font-family="Times,serif" font-size="14.00">ComputeColorCorrelationMap</text>
</g>
<!-- opsin2&#45;&gt;ComputeColorCorrelationMap -->
<g id="edge13" class="edge">
<title>opsin2&#45;&gt;ComputeColorCorrelationMap</title>
<path fill="none" stroke="black" d="M544.55,-1085.6C568.14,-1075.47 603.21,-1060.41 631.9,-1048.09"/>
<polygon fill="black" stroke="black" points="633.55,-1051.19 641.35,-1044.03 630.78,-1044.76 633.55,-1051.19"/>
</g>
<!-- opsin2&#45;&gt;ComputeAcStrategyImage -->
<g id="edge16" class="edge">
<title>opsin2&#45;&gt;ComputeAcStrategyImage</title>
<path fill="none" stroke="black" d="M518.58,-1079.87C518.75,-1047.97 514.76,-978.81 480,-936 468.92,-922.36 453.53,-912.04 437.66,-904.31"/>
<polygon fill="black" stroke="black" points="438.84,-901.01 428.29,-900.06 435.95,-907.38 438.84,-901.01"/>
</g>
<!-- DCT -->
<g id="node21" class="node">
<title>DCT</title>
<polygon fill="none" stroke="black" points="601,-756 547,-756 547,-720 601,-720 601,-756"/>
<text text-anchor="middle" x="574" y="-734.3" font-family="Times,serif" font-size="14.00">DCT</text>
</g>
<!-- opsin2&#45;&gt;DCT -->
<g id="edge25" class="edge">
<title>opsin2&#45;&gt;DCT</title>
<path fill="none" stroke="black" d="M521.75,-1080.05C527.29,-1053.52 537,-1000.52 537,-955 537,-955 537,-955 537,-881 537,-839.71 551.83,-793.77 562.72,-765.63"/>
<polygon fill="black" stroke="black" points="566.06,-766.7 566.51,-756.11 559.56,-764.11 566.06,-766.7"/>
</g>
<!-- GaborishInverse&#45;&gt;opsin2 -->
<g id="edge12" class="edge">
<title>GaborishInverse&#45;&gt;opsin2</title>
<path fill="none" stroke="black" d="M479.61,-1151.7C485.84,-1143.14 493.47,-1132.67 500.28,-1123.33"/>
<polygon fill="black" stroke="black" points="503.18,-1125.29 506.24,-1115.14 497.52,-1121.17 503.18,-1125.29"/>
</g>
<!-- cmapAC -->
<g id="node14" class="node">
<title>cmapAC</title>
<ellipse fill="none" stroke="black" cx="638" cy="-954" rx="48.99" ry="18"/>
<text text-anchor="middle" x="638" y="-950.3" font-family="Times,serif" font-size="14.00">cmapAC</text>
</g>
<!-- ComputeColorCorrelationMap&#45;&gt;cmapAC -->
<g id="edge14" class="edge">
<title>ComputeColorCorrelationMap&#45;&gt;cmapAC</title>
<path fill="none" stroke="black" d="M670.37,-1007.7C665.3,-999.44 659.13,-989.39 653.54,-980.3"/>
<polygon fill="black" stroke="black" points="656.43,-978.31 648.21,-971.62 650.46,-981.98 656.43,-978.31"/>
</g>
<!-- cmapDC -->
<g id="node15" class="node">
<title>cmapDC</title>
<ellipse fill="none" stroke="black" cx="767" cy="-666" rx="50.09" ry="18"/>
<text text-anchor="middle" x="767" y="-662.3" font-family="Times,serif" font-size="14.00">cmapDC</text>
</g>
<!-- ComputeColorCorrelationMap&#45;&gt;cmapDC -->
<g id="edge15" class="edge">
<title>ComputeColorCorrelationMap&#45;&gt;cmapDC</title>
<path fill="none" stroke="black" d="M690.53,-1007.66C704,-981.47 727,-929.9 727,-883 727,-883 727,-883 727,-809 727,-767.48 743.04,-721.61 754.8,-693.54"/>
<polygon fill="black" stroke="black" points="758.15,-694.62 758.91,-684.05 751.73,-691.84 758.15,-694.62"/>
</g>
<!-- cmapAC&#45;&gt;ComputeAcStrategyImage -->
<g id="edge18" class="edge">
<title>cmapAC&#45;&gt;ComputeAcStrategyImage</title>
<path fill="none" stroke="black" d="M599.17,-942.97C558.56,-932.48 493.77,-915.74 442.94,-902.61"/>
<polygon fill="black" stroke="black" points="443.53,-899.15 432.97,-900.04 441.78,-905.93 443.53,-899.15"/>
</g>
<!-- ComputeACTokens -->
<g id="node23" class="node">
<title>ComputeACTokens</title>
<polygon fill="none" stroke="black" points="352.5,-612 201.5,-612 201.5,-576 352.5,-576 352.5,-612"/>
<text text-anchor="middle" x="277" y="-590.3" font-family="Times,serif" font-size="14.00">ComputeACTokens</text>
</g>
<!-- cmapAC&#45;&gt;ComputeACTokens -->
<g id="edge31" class="edge">
<title>cmapAC&#45;&gt;ComputeACTokens</title>
<path fill="none" stroke="black" d="M615.53,-937.85C585.57,-918.26 530.35,-884.27 479,-864 349.13,-812.73 258.2,-874.27 184,-756 158.49,-715.34 159.88,-689.5 184,-648 191.59,-634.94 203.73,-624.84 216.76,-617.12"/>
<polygon fill="black" stroke="black" points="218.78,-620.01 225.89,-612.16 215.43,-613.86 218.78,-620.01"/>
</g>
<!-- ComputeACMetaTokens -->
<g id="node27" class="node">
<title>ComputeACMetaTokens</title>
<polygon fill="none" stroke="black" points="613,-612 425,-612 425,-576 613,-576 613,-612"/>
<text text-anchor="middle" x="519" y="-590.3" font-family="Times,serif" font-size="14.00">ComputeACMetaTokens</text>
</g>
<!-- cmapAC&#45;&gt;ComputeACMetaTokens -->
<g id="edge36" class="edge">
<title>cmapAC&#45;&gt;ComputeACMetaTokens</title>
<path fill="none" stroke="black" d="M648.32,-936.21C663.22,-910.33 689,-858.67 689,-811 689,-811 689,-811 689,-737 689,-696.55 696.72,-678.36 670,-648 657.34,-633.62 640.54,-623.13 622.75,-615.5"/>
<polygon fill="black" stroke="black" points="623.96,-612.21 613.37,-611.76 621.36,-618.71 623.96,-612.21"/>
</g>
<!-- ComputeDCTokens -->
<g id="node25" class="node">
<title>ComputeDCTokens</title>
<polygon fill="none" stroke="black" points="783,-612 631,-612 631,-576 783,-576 783,-612"/>
<text text-anchor="middle" x="707" y="-590.3" font-family="Times,serif" font-size="14.00">ComputeDCTokens</text>
</g>
<!-- cmapDC&#45;&gt;ComputeDCTokens -->
<g id="edge34" class="edge">
<title>cmapDC&#45;&gt;ComputeDCTokens</title>
<path fill="none" stroke="black" d="M752.78,-648.41C745.53,-639.95 736.55,-629.47 728.47,-620.05"/>
<polygon fill="black" stroke="black" points="731.12,-617.76 721.95,-612.45 725.8,-622.32 731.12,-617.76"/>
</g>
<!-- WriteDCGlobal -->
<g id="node30" class="node">
<title>WriteDCGlobal</title>
<polygon fill="none" stroke="black" points="872.5,-468 749.5,-468 749.5,-432 872.5,-432 872.5,-468"/>
<text text-anchor="middle" x="811" y="-446.3" font-family="Times,serif" font-size="14.00">WriteDCGlobal</text>
</g>
<!-- cmapDC&#45;&gt;WriteDCGlobal -->
<g id="edge40" class="edge">
<title>cmapDC&#45;&gt;WriteDCGlobal</title>
<path fill="none" stroke="black" d="M776.81,-647.89C782.16,-637.77 788.41,-624.52 792,-612 805.1,-566.3 809.18,-510.82 810.45,-478.36"/>
<polygon fill="black" stroke="black" points="813.95,-478.39 810.78,-468.28 806.95,-478.16 813.95,-478.39"/>
</g>
<!-- ac_strategy -->
<g id="node17" class="node">
<title>ac_strategy</title>
<ellipse fill="none" stroke="black" cx="406" cy="-810" rx="64.19" ry="18"/>
<text text-anchor="middle" x="406" y="-806.3" font-family="Times,serif" font-size="14.00">ac_strategy</text>
</g>
<!-- ComputeAcStrategyImage&#45;&gt;ac_strategy -->
<g id="edge21" class="edge">
<title>ComputeAcStrategyImage&#45;&gt;ac_strategy</title>
<path fill="none" stroke="black" d="M376.64,-863.7C381.13,-855.64 386.56,-845.89 391.52,-836.98"/>
<polygon fill="black" stroke="black" points="394.66,-838.54 396.47,-828.1 388.55,-835.14 394.66,-838.54"/>
</g>
<!-- ac_strategy&#45;&gt;AdjustRawQuantField -->
<g id="edge23" class="edge">
<title>ac_strategy&#45;&gt;AdjustRawQuantField</title>
<path fill="none" stroke="black" d="M378.35,-793.64C361.09,-784.05 338.59,-771.55 319.48,-760.93"/>
<polygon fill="black" stroke="black" points="321.12,-757.84 310.68,-756.04 317.72,-763.96 321.12,-757.84"/>
</g>
<!-- ac_strategy&#45;&gt;DCT -->
<g id="edge26" class="edge">
<title>ac_strategy&#45;&gt;DCT</title>
<path fill="none" stroke="black" d="M440.4,-794.67C468.69,-782.88 508.67,-766.22 537.52,-754.2"/>
<polygon fill="black" stroke="black" points="538.95,-757.39 546.84,-750.32 536.26,-750.93 538.95,-757.39"/>
</g>
<!-- ac_strategy&#45;&gt;ComputeACMetaTokens -->
<g id="edge37" class="edge">
<title>ac_strategy&#45;&gt;ComputeACMetaTokens</title>
<path fill="none" stroke="black" d="M422.36,-792.36C443.61,-769.78 480.3,-727.24 500,-684 508.98,-664.29 513.79,-640.17 516.32,-622.01"/>
<polygon fill="black" stroke="black" points="519.8,-622.44 517.56,-612.09 512.85,-621.57 519.8,-622.44"/>
</g>
<!-- raw_quant_field2 -->
<g id="node19" class="node">
<title>raw_quant_field2</title>
<ellipse fill="none" stroke="black" cx="277" cy="-666" rx="83.69" ry="18"/>
<text text-anchor="middle" x="277" y="-662.3" font-family="Times,serif" font-size="14.00">raw_quant_field</text>
</g>
<!-- AdjustRawQuantField&#45;&gt;raw_quant_field2 -->
<g id="edge24" class="edge">
<title>AdjustRawQuantField&#45;&gt;raw_quant_field2</title>
<path fill="none" stroke="black" d="M279.26,-719.7C278.93,-711.98 278.53,-702.71 278.16,-694.11"/>
<polygon fill="black" stroke="black" points="281.66,-693.95 277.73,-684.1 274.66,-694.25 281.66,-693.95"/>
</g>
<!-- raw_quant_field2&#45;&gt;ComputeACTokens -->
<g id="edge30" class="edge">
<title>raw_quant_field2&#45;&gt;ComputeACTokens</title>
<path fill="none" stroke="black" d="M277,-647.7C277,-639.98 277,-630.71 277,-622.11"/>
<polygon fill="black" stroke="black" points="280.5,-622.1 277,-612.1 273.5,-622.1 280.5,-622.1"/>
</g>
<!-- raw_quant_field2&#45;&gt;ComputeACMetaTokens -->
<g id="edge38" class="edge">
<title>raw_quant_field2&#45;&gt;ComputeACMetaTokens</title>
<path fill="none" stroke="black" d="M324.81,-651.17C360.7,-640.79 410.34,-626.43 450.45,-614.83"/>
<polygon fill="black" stroke="black" points="451.53,-618.16 460.16,-612.02 449.58,-611.44 451.53,-618.16"/>
</g>
<!-- dc -->
<g id="node20" class="node">
<title>dc</title>
<ellipse fill="none" stroke="black" cx="604" cy="-666" rx="56.59" ry="18"/>
<text text-anchor="middle" x="604" y="-662.3" font-family="Times,serif" font-size="14.00">DC Image</text>
</g>
<!-- dc&#45;&gt;ComputeDCTokens -->
<g id="edge33" class="edge">
<title>dc&#45;&gt;ComputeDCTokens</title>
<path fill="none" stroke="black" d="M626.86,-649.46C640.43,-640.24 657.9,-628.37 673.06,-618.06"/>
<polygon fill="black" stroke="black" points="675.37,-620.73 681.68,-612.21 671.44,-614.94 675.37,-620.73"/>
</g>
<!-- DCT&#45;&gt;dc -->
<g id="edge27" class="edge">
<title>DCT&#45;&gt;dc</title>
<path fill="none" stroke="black" d="M581.42,-719.7C584.79,-711.81 588.87,-702.3 592.62,-693.55"/>
<polygon fill="black" stroke="black" points="595.95,-694.67 596.67,-684.1 589.51,-691.92 595.95,-694.67"/>
</g>
<!-- ac -->
<g id="node22" class="node">
<title>ac</title>
<ellipse fill="none" stroke="black" cx="435" cy="-666" rx="55.79" ry="18"/>
<text text-anchor="middle" x="435" y="-662.3" font-family="Times,serif" font-size="14.00">AC Image</text>
</g>
<!-- DCT&#45;&gt;ac -->
<g id="edge28" class="edge">
<title>DCT&#45;&gt;ac</title>
<path fill="none" stroke="black" d="M546.87,-723.34C525.81,-712.73 496.34,-697.89 472.94,-686.11"/>
<polygon fill="black" stroke="black" points="474.48,-682.97 463.98,-681.59 471.34,-689.22 474.48,-682.97"/>
</g>
<!-- ac&#45;&gt;ComputeACTokens -->
<g id="edge29" class="edge">
<title>ac&#45;&gt;ComputeACTokens</title>
<path fill="none" stroke="black" d="M403.41,-651C380.97,-641.06 350.43,-627.53 324.99,-616.26"/>
<polygon fill="black" stroke="black" points="326.08,-612.92 315.52,-612.07 323.25,-619.32 326.08,-612.92"/>
</g>
<!-- ac_tokens -->
<g id="node24" class="node">
<title>ac_tokens</title>
<ellipse fill="none" stroke="black" cx="277" cy="-522" rx="55.79" ry="18"/>
<text text-anchor="middle" x="277" y="-518.3" font-family="Times,serif" font-size="14.00">ac_tokens</text>
</g>
<!-- ComputeACTokens&#45;&gt;ac_tokens -->
<g id="edge32" class="edge">
<title>ComputeACTokens&#45;&gt;ac_tokens</title>
<path fill="none" stroke="black" d="M277,-575.7C277,-567.98 277,-558.71 277,-550.11"/>
<polygon fill="black" stroke="black" points="280.5,-550.1 277,-540.1 273.5,-550.1 280.5,-550.1"/>
</g>
<!-- WriteACGlobal -->
<g id="node35" class="node">
<title>WriteACGlobal</title>
<polygon fill="none" stroke="black" points="394,-468 272,-468 272,-432 394,-432 394,-468"/>
<text text-anchor="middle" x="333" y="-446.3" font-family="Times,serif" font-size="14.00">WriteACGlobal</text>
</g>
<!-- ac_tokens&#45;&gt;WriteACGlobal -->
<g id="edge51" class="edge">
<title>ac_tokens&#45;&gt;WriteACGlobal</title>
<path fill="none" stroke="black" d="M290.27,-504.41C296.98,-496.03 305.25,-485.68 312.73,-476.33"/>
<polygon fill="black" stroke="black" points="315.53,-478.44 319.04,-468.45 310.06,-474.07 315.53,-478.44"/>
</g>
<!-- WriteACGroups -->
<g id="node39" class="node">
<title>WriteACGroups</title>
<polygon fill="none" stroke="black" points="458,-324 330,-324 330,-288 458,-288 458,-324"/>
<text text-anchor="middle" x="394" y="-302.3" font-family="Times,serif" font-size="14.00">WriteACGroups</text>
</g>
<!-- ac_tokens&#45;&gt;WriteACGroups -->
<g id="edge55" class="edge">
<title>ac_tokens&#45;&gt;WriteACGroups</title>
<path fill="none" stroke="black" d="M269.5,-504.11C256.78,-472.61 235.19,-404.09 266,-360 278.84,-341.62 299.31,-329.6 320.14,-321.74"/>
<polygon fill="black" stroke="black" points="321.41,-325.01 329.71,-318.42 319.11,-318.39 321.41,-325.01"/>
</g>
<!-- dc_tokens -->
<g id="node26" class="node">
<title>dc_tokens</title>
<ellipse fill="none" stroke="black" cx="896" cy="-522" rx="56.59" ry="18"/>
<text text-anchor="middle" x="896" y="-518.3" font-family="Times,serif" font-size="14.00">dc_tokens</text>
</g>
<!-- ComputeDCTokens&#45;&gt;dc_tokens -->
<g id="edge35" class="edge">
<title>ComputeDCTokens&#45;&gt;dc_tokens</title>
<path fill="none" stroke="black" d="M753.23,-575.88C782.98,-564.86 821.46,-550.61 850.97,-539.68"/>
<polygon fill="black" stroke="black" points="852.45,-542.86 860.61,-536.11 850.01,-536.3 852.45,-542.86"/>
</g>
<!-- dc_tokens&#45;&gt;WriteDCGlobal -->
<g id="edge41" class="edge">
<title>dc_tokens&#45;&gt;WriteDCGlobal</title>
<path fill="none" stroke="black" d="M876.29,-504.76C865.45,-495.84 851.8,-484.6 839.79,-474.71"/>
<polygon fill="black" stroke="black" points="841.74,-471.78 831.79,-468.12 837.29,-477.18 841.74,-471.78"/>
</g>
<!-- WriteDCGroups -->
<g id="node34" class="node">
<title>WriteDCGroups</title>
<polygon fill="none" stroke="black" points="837.5,-324 708.5,-324 708.5,-288 837.5,-288 837.5,-324"/>
<text text-anchor="middle" x="773" y="-302.3" font-family="Times,serif" font-size="14.00">WriteDCGroups</text>
</g>
<!-- dc_tokens&#45;&gt;WriteDCGroups -->
<g id="edge46" class="edge">
<title>dc_tokens&#45;&gt;WriteDCGroups</title>
<path fill="none" stroke="black" d="M903.24,-503.7C915.2,-472.12 934.95,-404.3 905,-360 891.63,-340.22 869.53,-327.82 847.2,-320.05"/>
<polygon fill="black" stroke="black" points="848.23,-316.7 837.64,-316.99 846.1,-323.37 848.23,-316.7"/>
</g>
<!-- ac_meta_tokens -->
<g id="node28" class="node">
<title>ac_meta_tokens</title>
<ellipse fill="none" stroke="black" cx="585" cy="-522" rx="83.69" ry="18"/>
<text text-anchor="middle" x="585" y="-518.3" font-family="Times,serif" font-size="14.00">ac_meta_tokens</text>
</g>
<!-- ComputeACMetaTokens&#45;&gt;ac_meta_tokens -->
<g id="edge39" class="edge">
<title>ComputeACMetaTokens&#45;&gt;ac_meta_tokens</title>
<path fill="none" stroke="black" d="M535.31,-575.7C543.31,-567.22 553.07,-556.86 561.82,-547.58"/>
<polygon fill="black" stroke="black" points="564.56,-549.78 568.87,-540.1 559.47,-544.98 564.56,-549.78"/>
</g>
<!-- ac_meta_tokens&#45;&gt;WriteDCGlobal -->
<g id="edge42" class="edge">
<title>ac_meta_tokens&#45;&gt;WriteDCGlobal</title>
<path fill="none" stroke="black" d="M630.73,-506.83C663.89,-496.57 709.18,-482.54 746.08,-471.11"/>
<polygon fill="black" stroke="black" points="747.23,-474.41 755.75,-468.11 745.16,-467.73 747.23,-474.41"/>
</g>
<!-- ac_meta_tokens&#45;&gt;WriteDCGroups -->
<g id="edge47" class="edge">
<title>ac_meta_tokens&#45;&gt;WriteDCGroups</title>
<path fill="none" stroke="black" d="M581.5,-503.64C576.07,-471.36 569.51,-401.6 604,-360 627.04,-332.21 664.5,-318.76 698.3,-312.34"/>
<polygon fill="black" stroke="black" points="698.92,-315.79 708.18,-310.64 697.73,-308.89 698.92,-315.79"/>
</g>
<!-- dcglobal -->
<g id="node29" class="node">
<title>dcglobal</title>
<polygon fill="none" stroke="black" points="1214.26,-252 992.73,-252 935.74,-216 1157.27,-216 1214.26,-252"/>
<text text-anchor="middle" x="1075" y="-230.3" font-family="Times,serif" font-size="14.00">DC Global Section</text>
</g>
<!-- WriteToc -->
<g id="node41" class="node">
<title>WriteToc</title>
<polygon fill="none" stroke="black" points="579,-180 499,-180 499,-144 579,-144 579,-180"/>
<text text-anchor="middle" x="539" y="-158.3" font-family="Times,serif" font-size="14.00">WriteToc</text>
</g>
<!-- dcglobal&#45;&gt;WriteToc -->
<g id="edge59" class="edge">
<title>dcglobal&#45;&gt;WriteToc</title>
<path fill="none" stroke="black" d="M944.57,-215.97C830.24,-201.04 670.09,-180.12 589.52,-169.6"/>
<polygon fill="black" stroke="black" points="589.53,-166.07 579.16,-168.24 588.62,-173.01 589.53,-166.07"/>
</g>
<!-- dcglobal&#45;&gt;jxl -->
<g id="edge66" class="edge">
<title>dcglobal&#45;&gt;jxl</title>
<path fill="none" stroke="black" d="M1029.08,-215.85C924.7,-176.87 669.96,-81.73 557.23,-39.63"/>
<polygon fill="black" stroke="black" points="558.34,-36.3 547.74,-36.08 555.89,-42.86 558.34,-36.3"/>
</g>
<!-- WriteDCGlobal&#45;&gt;dcglobal -->
<g id="edge45" class="edge">
<title>WriteDCGlobal&#45;&gt;dcglobal</title>
<path fill="none" stroke="black" d="M846.19,-431.79C864.4,-422.25 886.61,-409.57 905,-396 962.53,-353.54 1021.26,-293.42 1052.38,-259.95"/>
<polygon fill="black" stroke="black" points="1055.11,-262.16 1059.32,-252.44 1049.96,-257.41 1055.11,-262.16"/>
</g>
<!-- dc_code -->
<g id="node31" class="node">
<title>dc_code</title>
<ellipse fill="none" stroke="black" cx="660" cy="-378" rx="47.39" ry="18"/>
<text text-anchor="middle" x="660" y="-374.3" font-family="Times,serif" font-size="14.00">dc_code</text>
</g>
<!-- WriteDCGlobal&#45;&gt;dc_code -->
<g id="edge43" class="edge">
<title>WriteDCGlobal&#45;&gt;dc_code</title>
<path fill="none" stroke="black" d="M774.06,-431.88C751.04,-421.2 721.48,-407.5 698.22,-396.72"/>
<polygon fill="black" stroke="black" points="699.54,-393.47 689,-392.44 696.6,-399.82 699.54,-393.47"/>
</g>
<!-- dc_context_map -->
<g id="node32" class="node">
<title>dc_context_map</title>
<ellipse fill="none" stroke="black" cx="811" cy="-378" rx="85.29" ry="18"/>
<text text-anchor="middle" x="811" y="-374.3" font-family="Times,serif" font-size="14.00">dc_context_map</text>
</g>
<!-- WriteDCGlobal&#45;&gt;dc_context_map -->
<g id="edge44" class="edge">
<title>WriteDCGlobal&#45;&gt;dc_context_map</title>
<path fill="none" stroke="black" d="M811,-431.7C811,-423.98 811,-414.71 811,-406.11"/>
<polygon fill="black" stroke="black" points="814.5,-406.1 811,-396.1 807.5,-406.1 814.5,-406.1"/>
</g>
<!-- dc_code&#45;&gt;WriteDCGroups -->
<g id="edge48" class="edge">
<title>dc_code&#45;&gt;WriteDCGroups</title>
<path fill="none" stroke="black" d="M683.69,-362.33C699.01,-352.83 719.26,-340.29 736.6,-329.55"/>
<polygon fill="black" stroke="black" points="738.7,-332.36 745.36,-324.12 735.02,-326.41 738.7,-332.36"/>
</g>
<!-- dc_context_map&#45;&gt;WriteDCGroups -->
<g id="edge49" class="edge">
<title>dc_context_map&#45;&gt;WriteDCGroups</title>
<path fill="none" stroke="black" d="M801.8,-360.05C797.43,-352.01 792.11,-342.2 787.24,-333.23"/>
<polygon fill="black" stroke="black" points="790.22,-331.39 782.38,-324.28 784.07,-334.73 790.22,-331.39"/>
</g>
<!-- dcgroups -->
<g id="node33" class="node">
<title>dcgroups</title>
<polygon fill="none" stroke="black" points="917.69,-252 687.52,-252 628.31,-216 858.48,-216 917.69,-252"/>
<text text-anchor="middle" x="773" y="-230.3" font-family="Times,serif" font-size="14.00">DC Group Sections</text>
</g>
<!-- dcgroups&#45;&gt;WriteToc -->
<g id="edge61" class="edge">
<title>dcgroups&#45;&gt;WriteToc</title>
<path fill="none" stroke="black" d="M716.06,-215.97C677.19,-204.34 626.18,-189.08 588.91,-177.93"/>
<polygon fill="black" stroke="black" points="589.84,-174.56 579.26,-175.04 587.84,-181.26 589.84,-174.56"/>
</g>
<!-- dcgroups&#45;&gt;jxl -->
<g id="edge68" class="edge">
<title>dcgroups&#45;&gt;jxl</title>
<path fill="none" stroke="black" d="M756.13,-215.75C725.38,-184.84 657.44,-118.84 593,-72 577.67,-60.86 559.84,-50.05 544.04,-41.13"/>
<polygon fill="black" stroke="black" points="545.45,-37.91 535.01,-36.11 542.05,-44.03 545.45,-37.91"/>
</g>
<!-- WriteDCGroups&#45;&gt;dcgroups -->
<g id="edge50" class="edge">
<title>WriteDCGroups&#45;&gt;dcgroups</title>
<path fill="none" stroke="black" d="M773,-287.7C773,-279.98 773,-270.71 773,-262.11"/>
<polygon fill="black" stroke="black" points="776.5,-262.1 773,-252.1 769.5,-262.1 776.5,-262.1"/>
</g>
<!-- ac_code -->
<g id="node36" class="node">
<title>ac_code</title>
<ellipse fill="none" stroke="black" cx="322" cy="-378" rx="46.59" ry="18"/>
<text text-anchor="middle" x="322" y="-374.3" font-family="Times,serif" font-size="14.00">ac_code</text>
</g>
<!-- WriteACGlobal&#45;&gt;ac_code -->
<g id="edge52" class="edge">
<title>WriteACGlobal&#45;&gt;ac_code</title>
<path fill="none" stroke="black" d="M330.28,-431.7C329.07,-423.98 327.61,-414.71 326.26,-406.11"/>
<polygon fill="black" stroke="black" points="329.7,-405.44 324.69,-396.1 322.78,-406.53 329.7,-405.44"/>
</g>
<!-- ac_context_map -->
<g id="node37" class="node">
<title>ac_context_map</title>
<ellipse fill="none" stroke="black" cx="471" cy="-378" rx="84.49" ry="18"/>
<text text-anchor="middle" x="471" y="-374.3" font-family="Times,serif" font-size="14.00">ac_context_map</text>
</g>
<!-- WriteACGlobal&#45;&gt;ac_context_map -->
<g id="edge53" class="edge">
<title>WriteACGlobal&#45;&gt;ac_context_map</title>
<path fill="none" stroke="black" d="M366.76,-431.88C386.13,-422.05 410.58,-409.65 430.92,-399.33"/>
<polygon fill="black" stroke="black" points="432.61,-402.4 439.95,-394.75 429.45,-396.15 432.61,-402.4"/>
</g>
<!-- acglobal -->
<g id="node38" class="node">
<title>acglobal</title>
<polygon fill="none" stroke="black" points="304.35,-252 84.26,-252 27.65,-216 247.74,-216 304.35,-252"/>
<text text-anchor="middle" x="166" y="-230.3" font-family="Times,serif" font-size="14.00">AC Global Section</text>
</g>
<!-- WriteACGlobal&#45;&gt;acglobal -->
<g id="edge54" class="edge">
<title>WriteACGlobal&#45;&gt;acglobal</title>
<path fill="none" stroke="black" d="M307.37,-431.97C294.09,-422.38 278.15,-409.61 266,-396 228.11,-353.55 195.78,-294.98 178.79,-261.45"/>
<polygon fill="black" stroke="black" points="181.81,-259.67 174.21,-252.29 175.55,-262.8 181.81,-259.67"/>
</g>
<!-- ac_code&#45;&gt;WriteACGroups -->
<g id="edge56" class="edge">
<title>ac_code&#45;&gt;WriteACGroups</title>
<path fill="none" stroke="black" d="M338.34,-361.12C347.4,-352.31 358.85,-341.17 369.01,-331.29"/>
<polygon fill="black" stroke="black" points="371.74,-333.52 376.47,-324.04 366.86,-328.51 371.74,-333.52"/>
</g>
<!-- ac_context_map&#45;&gt;WriteACGroups -->
<g id="edge57" class="edge">
<title>ac_context_map&#45;&gt;WriteACGroups</title>
<path fill="none" stroke="black" d="M452.75,-360.41C443.09,-351.63 431.05,-340.68 420.39,-330.99"/>
<polygon fill="black" stroke="black" points="422.67,-328.34 412.92,-324.2 417.97,-333.52 422.67,-328.34"/>
</g>
<!-- acglobal&#45;&gt;WriteToc -->
<g id="edge60" class="edge">
<title>acglobal&#45;&gt;WriteToc</title>
<path fill="none" stroke="black" d="M250.17,-217.2C323.5,-203.44 427.39,-183.95 488.53,-172.47"/>
<polygon fill="black" stroke="black" points="489.51,-175.85 498.69,-170.56 488.22,-168.97 489.51,-175.85"/>
</g>
<!-- acglobal&#45;&gt;jxl -->
<g id="edge67" class="edge">
<title>acglobal&#45;&gt;jxl</title>
<path fill="none" stroke="black" d="M192.93,-215.85C253.14,-177.5 398.66,-84.82 466.32,-41.73"/>
<polygon fill="black" stroke="black" points="468.39,-44.56 474.94,-36.23 464.63,-38.65 468.39,-44.56"/>
</g>
<!-- acgroups -->
<g id="node40" class="node">
<title>acgroups</title>
<polygon fill="none" stroke="black" points="609.79,-252 381.05,-252 322.21,-216 550.95,-216 609.79,-252"/>
<text text-anchor="middle" x="466" y="-230.3" font-family="Times,serif" font-size="14.00">AC Group Sections</text>
</g>
<!-- WriteACGroups&#45;&gt;acgroups -->
<g id="edge58" class="edge">
<title>WriteACGroups&#45;&gt;acgroups</title>
<path fill="none" stroke="black" d="M411.8,-287.7C420.6,-279.14 431.38,-268.66 441,-259.3"/>
<polygon fill="black" stroke="black" points="443.68,-261.58 448.41,-252.1 438.8,-256.57 443.68,-261.58"/>
</g>
<!-- acgroups&#45;&gt;WriteToc -->
<g id="edge62" class="edge">
<title>acgroups&#45;&gt;WriteToc</title>
<path fill="none" stroke="black" d="M484.04,-215.7C493.06,-207.05 504.12,-196.45 513.94,-187.03"/>
<polygon fill="black" stroke="black" points="516.37,-189.55 521.16,-180.1 511.52,-184.5 516.37,-189.55"/>
</g>
<!-- acgroups&#45;&gt;jxl -->
<g id="edge69" class="edge">
<title>acgroups&#45;&gt;jxl</title>
<path fill="none" stroke="black" d="M466.93,-215.9C468.79,-186.3 473.77,-123.71 485,-72 486.87,-63.41 489.55,-54.23 492.24,-45.96"/>
<polygon fill="black" stroke="black" points="495.58,-47.03 495.47,-36.43 488.95,-44.78 495.58,-47.03"/>
</g>
<!-- toc -->
<g id="node42" class="node">
<title>toc</title>
<polygon fill="none" stroke="black" points="583.58,-108 512.66,-108 494.42,-72 565.34,-72 583.58,-108"/>
<text text-anchor="middle" x="539" y="-86.3" font-family="Times,serif" font-size="14.00">TOC</text>
</g>
<!-- WriteToc&#45;&gt;toc -->
<g id="edge63" class="edge">
<title>WriteToc&#45;&gt;toc</title>
<path fill="none" stroke="black" d="M539,-143.7C539,-135.98 539,-126.71 539,-118.11"/>
<polygon fill="black" stroke="black" points="542.5,-118.1 539,-108.1 535.5,-118.1 542.5,-118.1"/>
</g>
<!-- toc&#45;&gt;jxl -->
<g id="edge65" class="edge">
<title>toc&#45;&gt;jxl</title>
<path fill="none" stroke="black" d="M529.85,-71.7C525.6,-63.64 520.44,-53.89 515.73,-44.98"/>
<polygon fill="black" stroke="black" points="518.81,-43.31 511.04,-36.1 512.62,-46.58 518.81,-43.31"/>
</g>
</g>
</svg>
